<?xml version="1.0" encoding="iso-8859-1"?>
<!-- Generator: Adobe Illustrator 19.0.0, SVG Export Plug-In . SVG Version: 6.00 Build 0)  -->
<svg version="1.1" id="Capa_1" xmlns="http://www.w3.org/2000/svg" xmlns:xlink="http://www.w3.org/1999/xlink" x="0px" y="0px"
	 viewBox="0 0 448 448" style="enable-background:new 0 0 448 448;" xml:space="preserve">
<path style="fill:#787878;" d="M0,127.84v256c0,17.6,14.4,32,32,32h384c17.664,0,32-14.32,32-32v-256H0z"/>
<rect x="31.997" y="127.842" style="fill:#FAFAFA;" width="384" height="256"/>
<path style="fill:#333333;" d="M416,32.16H32c-17.68,0-32,14.32-32,32v63.68h448V64.16C448,46.48,433.68,32.16,416,32.16z"/>
<circle style="fill:#CB5641;" cx="47.981" cy="80.162" r="16"/>
<circle style="fill:#F7BC30;" cx="111.981" cy="80.162" r="16"/>
<circle style="fill:#499F61;" cx="175.981" cy="80.162" r="16"/>
<g>
	<polygon style="fill:#5886C5;" points="304.8,176.64 282.176,199.264 338.752,255.84 282.176,312.416 304.8,335.04 384,255.84 	"/>
	<polygon style="fill:#5886C5;" points="143.2,176.64 64,255.84 143.2,335.04 165.824,312.416 109.248,255.84 165.824,199.264 	"/>
	
		<rect x="127.992" y="240.703" transform="matrix(-0.3828 0.9238 -0.9238 -0.3828 546.8777 148.0471)" style="fill:#5886C5;" width="191.986" height="31.999"/>
</g>
<g>
</g>
<g>
</g>
<g>
</g>
<g>
</g>
<g>
</g>
<g>
</g>
<g>
</g>
<g>
</g>
<g>
</g>
<g>
</g>
<g>
</g>
<g>
</g>
<g>
</g>
<g>
</g>
<g>
</g>
</svg>
