<?xml version="1.0" encoding="iso-8859-1"?>
<!-- Generator: Adobe Illustrator 19.0.0, SVG Export Plug-In . SVG Version: 6.00 Build 0)  -->
<svg version="1.1" id="Capa_1" xmlns="http://www.w3.org/2000/svg" xmlns:xlink="http://www.w3.org/1999/xlink" x="0px" y="0px"
	 viewBox="0 0 512 512" style="enable-background:new 0 0 512 512;" xml:space="preserve">
<path style="fill:#00DA7C;" d="M512,467c0,24.901-20.099,45-45,45h-78.6c-8.401,0-15-6.599-15-15s6.599-15,15-15H467
	c8.401,0,15-6.599,15-15s-6.599-15-15-15h-60c-24.901,0-45-20.099-45-45s20.099-45,45-45h60c8.401,0,15-6.599,15-15s-6.599-15-15-15
	h-60c-24.901,0-45-20.099-45-45s20.099-45,45-45c8.401,0,15-6.599,15-15v-30c0-8.401,6.599-15,15-15s15,6.599,15,15v30
	c0,13.2-5.7,25.201-15,33.3c-7.8,7.2-18.3,11.7-30,11.7c-8.401,0-15,6.599-15,15s6.599,15,15,15h60c24.901,0,45,20.099,45,45
	s-20.099,45-45,45h-60c-8.401,0-15,6.599-15,15s6.599,15,15,15h60C491.901,422,512,442.099,512,467z"/>
<g>
	<path style="fill:#00B77B;" d="M452,227c0,13.2-5.7,25.201-15,33.3V182c8.401,0,15,6.599,15,15V227z"/>
	<path style="fill:#00B77B;" d="M512,467c0,24.901-20.099,45-45,45h-30v-30h30c8.401,0,15-6.599,15-15s-6.599-15-15-15h-30v-30h30
		C491.901,422,512,442.099,512,467z"/>
	<path style="fill:#00B77B;" d="M512,347c0,24.901-20.099,45-45,45h-30v-30h30c8.401,0,15-6.599,15-15s-6.599-15-15-15h-30v-30h30
		C491.901,302,512,322.099,512,347z"/>
</g>
<path style="fill:#D9D9D9;" d="M407,91c-8.291,0-15-6.709-15-15V15c0-8.291,6.709-15,15-15s15,6.709,15,15v61
	C422,84.291,415.291,91,407,91z"/>
<path style="fill:#C8C6CD;" d="M467,91c-8.291,0-15-6.709-15-15V15c0-8.291,6.709-15,15-15s15,6.709,15,15v61
	C482,84.291,475.291,91,467,91z"/>
<path style="fill:#E5E5E5;" d="M330,45c0-24.901-20.099-45-45-45H45C20.099,0,0,20.099,0,45v422c0,24.901,20.099,45,45,45h240
	c24.901,0,45-20.099,45-45V45z"/>
<path style="fill:#D9D9D9;" d="M285,0c24.901,0,45,20.099,45,45v422c0,24.901-20.099,45-45,45H165V0H285z"/>
<g>
	<path style="fill:#FEDB41;" d="M225,60H105c-24.901,0-45,20.099-45,45v60c0,24.901,20.099,45,45,45h120c24.901,0,45-20.099,45-45
		v-60C270,80.099,249.901,60,225,60z"/>
	<path style="fill:#FEDB41;" d="M225,242H105c-24.901,0-45,20.099-45,45v60c0,24.901,20.099,45,45,45h120c24.901,0,45-20.099,45-45
		v-60C270,262.099,249.901,242,225,242z"/>
</g>
<g>
	<path style="fill:#FCBF29;" d="M270,105v60c0,24.901-20.099,45-45,45h-60V60h60C249.901,60,270,80.099,270,105z"/>
	<path style="fill:#FCBF29;" d="M270,287v60c0,24.901-20.099,45-45,45h-60V242h60C249.901,242,270,262.099,270,287z"/>
</g>
<circle style="fill:#57555C;" cx="135" cy="135" r="15"/>
<circle style="fill:#3C3A41;" cx="195" cy="135" r="15"/>
<circle style="fill:#57555C;" cx="135" cy="317" r="15"/>
<circle style="fill:#3C3A41;" cx="195" cy="317" r="15"/>
<g>
	<circle style="fill:#AEADB3;" cx="105" cy="437" r="15"/>
	<path style="fill:#AEADB3;" d="M180,437c0,8.401-6.599,15-15,15s-15-6.599-15-15s6.599-15,15-15S180,428.599,180,437z"/>
</g>
<circle style="fill:#8B8892;" cx="225" cy="437" r="15"/>
<path style="fill:#57555C;" d="M512,76c0-8.401-6.599-15-15-15H377c-8.401,0-15,6.599-15,15v61c0,41.4,33.6,75,75,75s75-33.6,75-75
	V76z"/>
<path style="fill:#8B8892;" d="M180,437c0,8.401-6.599,15-15,15v-30C173.401,422,180,428.599,180,437z"/>
<path style="fill:#3C3A41;" d="M497,61c8.401,0,15,6.599,15,15v61c0,41.4-33.6,75-75,75V61H497z"/>
<g>
</g>
<g>
</g>
<g>
</g>
<g>
</g>
<g>
</g>
<g>
</g>
<g>
</g>
<g>
</g>
<g>
</g>
<g>
</g>
<g>
</g>
<g>
</g>
<g>
</g>
<g>
</g>
<g>
</g>
</svg>
