<svg xmlns="http://www.w3.org/2000/svg" viewBox="0 0 511.999 511.999"><path fill="#fa982f" d="M256 349.772l-85.334-51.2v-85.334l85.334 51.2z"/><path fill="#f77219" d="M256 349.772l85.333-51.2v-85.334L256 264.438z"/><path fill="#f9b44d" d="M170.666 213.238l85.334-51.2 85.333 51.2-85.333 51.2z"/><path d="M249.173 3.318l-25.6 34.133 13.653 10.24 10.24-13.653v68.267h17.067V34.038l10.24 13.653 13.653-10.24-25.6-34.133a8.842 8.842 0 00-13.653 0zm15.36 474.454v-68.267h-17.067v68.267l-10.24-13.653-13.653 10.24 25.6 34.133c2.825 3.772 8.175 4.531 11.947 1.707a8.496 8.496 0 001.707-1.707l25.6-34.133-13.653-10.24-10.241 13.653zm-17.067-358.4h17.067v17.067h-17.067zm0 256h17.067v17.067h-17.067zM102.4 264.438v-17.067H34.133l13.653-10.24-10.24-13.653-34.133 25.6c-3.772 2.825-4.531 8.175-1.707 11.947a8.496 8.496 0 001.707 1.707l34.133 25.6 10.24-13.653-13.653-10.24H102.4v-.001zm406.186-15.36l-34.133-25.6-10.24 13.653 13.653 10.24H409.6v17.067h68.267l-13.653 10.24 10.24 13.653 34.133-25.6c3.772-2.825 4.531-8.175 1.707-11.947a8.548 8.548 0 00-1.708-1.706zm-389.12-1.706h17.067v17.067h-17.067zm256 0h17.067v17.067h-17.067zm-279.97-125.44l-2.406-16.887 48.265 48.265 12.066-12.066-48.265-48.265 16.887 2.406 2.415-16.896-42.231-6.05c-4.659-.691-9.003 2.526-9.694 7.185a8.861 8.861 0 000 2.509l6.033 42.231 16.93-2.432zm321.007 267.946l2.406 16.887-48.265-48.265-12.066 12.066 48.265 48.265-16.87-2.423-2.415 16.896 42.231 6.033a8.536 8.536 0 009.66-9.66l-6.033-42.231-16.913 2.432zM177.524 165.402l-12.068 12.068-12.068-12.068 12.068-12.068zm181.06 181.012l-12.068 12.068-12.068-12.068 12.068-12.068zm-217.23 12.07L93.09 406.749l2.406-16.887-16.896-2.416-6.067 42.231a8.537 8.537 0 009.66 9.66l42.231-6.033-2.415-16.896-16.887 2.406 48.265-48.265-12.033-12.065zm229.291-205.158l48.265-48.265-2.406 16.87 16.896 2.415 6.033-42.231a8.52 8.52 0 00-2.415-7.245 8.462 8.462 0 00-7.245-2.415l-42.231 6.033 2.415 16.896 16.887-2.406-48.265 48.265 12.066 12.083zM177.614 346.413l-12.068 12.068-12.068-12.068 12.068-12.068zm180.969-181.021l-12.068 12.068-12.068-12.068 12.068-12.068z" fill="#87ced9"/><path fill="#f77219" d="M289.962 182.416l-85.768 50.935 16.623 9.976 85.768-50.936z"/></svg>