<svg xmlns="http://www.w3.org/2000/svg" viewBox="0 0 448 448"><path d="M0 127.84v256c0 17.6 14.4 32 32 32h384c17.664 0 32-14.32 32-32v-256H0z" fill="#787878"/><path fill="#fafafa" d="M31.997 127.842h384v256h-384z"/><path d="M416 32.16H32c-17.68 0-32 14.32-32 32v63.68h448V64.16c0-17.68-14.32-32-32-32z" fill="#333"/><circle cx="47.981" cy="80.162" r="16" fill="#cb5641"/><circle cx="111.981" cy="80.162" r="16" fill="#f7bc30"/><circle cx="175.981" cy="80.162" r="16" fill="#499f61"/><path d="M304.8 176.64l-22.624 22.624 56.576 56.576-56.576 56.576L304.8 335.04l79.2-79.2zm-161.6 0L64 255.84l79.2 79.2 22.624-22.624-56.576-56.576 56.576-56.576zm132.32-2.495l-73.49 177.357-29.561-12.25 73.492-177.356z" fill="#5886c5"/></svg>