<svg height="512" viewBox="0 0 64 64" width="512" xmlns="http://www.w3.org/2000/svg"><path d="M24 33v26h16c0 .83.34 1.58.88 2.12a2.993 2.993 0 004.24 0c.54-.54.88-1.29.88-2.12h16V33z" fill="#5cd6b3"/><path d="M28 29h30v26H28z" fill="#e6e9ed"/><path d="M43 10c4.42 0 8 3.58 8 8s-3.58 8-8 8a8 8 0 01-7.69-5.78c.43-.44.69-1.05.69-1.72 0-.76-.34-1.44-.88-1.9.67-3.76 3.94-6.6 7.88-6.6zm4 8c0-2.21-1.79-4-4-4s-4 1.79-4 4 1.79 4 4 4 4-1.79 4-4z" fill="#fcd770"/><path d="M35.31 20.22A8 8 0 0043 26c4.42 0 8-3.58 8-8s-3.58-8-8-8c-3.94 0-7.21 2.84-7.88 6.6-.43-.38-1-.6-1.62-.6H31s1.04-2.91 1.35-3.51l-1.37-2.27 4.24-4.24 2.27 1.37c.6-.31 1.22-.58 1.88-.79L40 4h6l.63 2.56c.66.21 1.28.48 1.88.79l2.27-1.37 4.24 4.24-1.37 2.27c.31.6.58 1.22.79 1.88L57 15v6l-2.56.63c-.21.66-.48 1.28-.79 1.88l1.37 2.27L51.8 29l-1.02 1.02-2.27-1.37c-.6.31-1.22.58-1.88.79L46 32h-6l-.63-2.56c-.66-.21-1.28-.48-1.88-.79l-2.27 1.37L34.2 29l-3.22-3.22 1.37-2.27c-.31-.6-.98-2.51-.98-2.51h2.13c.69 0 1.32-.28 1.77-.73.02-.02.03-.03.04-.05z" fill="#ffc729"/><circle cx="13" cy="9" fill="#e6e9ed" r="7"/><path d="M35.12 16.6c-.43-.38-1-.6-1.62-.6H10c-4.42 0-8 3.58-8 8v10c0 2.21 1.79 4 4 4h1v21c0 .83.34 1.58.88 2.12S9.17 62 10 62c1.66 0 3-1.34 3-3 0 .83.34 1.58.88 2.12S15.17 62 16 62c1.66 0 3-1.34 3-3V23c0-1.1.9-2 2-2h12.5c.69 0 1.32-.28 1.77-.73.02-.02.03-.03.04-.05.43-.44.69-1.05.69-1.72 0-.76-.34-1.44-.88-1.9z" fill="#e6e9ed"/><path d="M59 32v-4h-4.787l2.069-2.069-1.493-2.465c.154-.33.293-.662.417-.995L58 21.784v-7.568l-2.794-.687a12.654 12.654 0 00-.417-.995l1.493-2.465-5.352-5.352-2.465 1.493a13.38 13.38 0 00-.995-.416L46.784 3h-7.568l-.687 2.794a13.38 13.38 0 00-.995.416l-2.466-1.492-5.352 5.352 1.507 2.488c-.283.685-.67 1.734-.927 2.442H18.274A7.976 7.976 0 0021 9c0-4.411-3.589-8-8-8S5 4.589 5 9a7.985 7.985 0 002.997 6.233C3.997 16.147 1 19.727 1 24v10c0 2.757 2.243 5 5 5v20c0 2.206 1.794 4 4 4 1.2 0 2.266-.542 3-1.382.734.84 1.8 1.382 3 1.382 2.206 0 4-1.794 4-4V23c0-.552.449-1 1-1h9.664c.159.436.369.997.557 1.446l-1.503 2.485L31.786 28H27v4h-4v28h16.126c.445 1.724 2.013 3 3.874 3s3.428-1.276 3.874-3H63V32zm-2-2v24H44V33h2.784l.687-2.794c.332-.123.664-.262.995-.416l2.466 1.492L52.213 30zM7 9c0-3.309 2.691-6 6-6s6 2.691 6 6-2.691 6-6 6-6-2.691-6-6zm11 14v36c0 1.103-.897 2-2 2s-2-.897-2-2V35h-2v24c0 1.103-.897 2-2 2s-2-.897-2-2V21H6v16c-1.654 0-3-1.346-3-3V24c0-3.859 3.14-7 7-7h23.5c.827 0 1.5.673 1.5 1.5s-.673 1.5-1.5 1.5H21c-1.654 0-3 1.346-3 3zm18.21-6.688A6.98 6.98 0 0143 11c3.86 0 7 3.141 7 7s-3.14 7-7 7c-2.944 0-5.564-1.882-6.559-4.617.35-.545.559-1.189.559-1.883a3.47 3.47 0 00-.79-2.188zM33.5 22c.466 0 .91-.096 1.317-.262C36.263 24.891 39.458 27 43 27c4.962 0 9-4.037 9-9s-4.038-9-9-9a8.978 8.978 0 00-8.533 6.153A3.437 3.437 0 0033.5 15h-1.073c.332-.899.677-1.797.81-2.055l.258-.498-1.255-2.073 3.134-3.133 2.073 1.255.499-.259a10.933 10.933 0 011.725-.722l.536-.169L40.784 5h4.432l.577 2.347.536.169c.571.181 1.151.424 1.725.722l.499.259 2.073-1.255 3.134 3.133-1.255 2.074.259.498c.296.571.54 1.152.722 1.727l.17.534 2.344.576v4.432l-2.345.577-.17.534a10.945 10.945 0 01-.722 1.727l-.259.498 1.255 2.074-3.134 3.133-2.073-1.255-.499.259c-.574.298-1.154.541-1.725.722l-.536.169L45.216 31h-4.432l-.577-2.345-.534-.17a10.936 10.936 0 01-1.727-.723l-.499-.259-2.073 1.255-3.134-3.134 1.255-2.072-.258-.498c-.1-.194-.266-.604-.438-1.055h.701zM29 30h4.786l1.282 1.282 2.466-1.492c.33.154.662.293.995.416L39.216 33H42v21H29zm32 28H45v1c0 1.103-.897 2-2 2s-2-.897-2-2v-1H25V34h2v22h32V34h2z"/><path d="M43 23c2.757 0 5-2.243 5-5s-2.243-5-5-5-5 2.243-5 5 2.243 5 5 5zm0-8c1.654 0 3 1.346 3 3s-1.346 3-3 3-3-1.346-3-3 1.346-3 3-3zm6 19h6v2h-6zm-3 4h9v2h-9zm0 4h9v2h-9zm0 4h9v2h-9zm0 4h9v2h-9zM31 34h6v2h-6zm0 4h9v2h-9zm0 4h9v2h-9zm0 4h9v2h-9zm0 4h9v2h-9z"/></svg>