<svg xmlns="http://www.w3.org/2000/svg" viewBox="0 0 512 512"><path d="M512 467c0 24.901-20.099 45-45 45h-78.6c-8.401 0-15-6.599-15-15s6.599-15 15-15H467c8.401 0 15-6.599 15-15s-6.599-15-15-15h-60c-24.901 0-45-20.099-45-45s20.099-45 45-45h60c8.401 0 15-6.599 15-15s-6.599-15-15-15h-60c-24.901 0-45-20.099-45-45s20.099-45 45-45c8.401 0 15-6.599 15-15v-30c0-8.401 6.599-15 15-15s15 6.599 15 15v30c0 13.2-5.7 25.201-15 33.3-7.8 7.2-18.3 11.7-30 11.7-8.401 0-15 6.599-15 15s6.599 15 15 15h60c24.901 0 45 20.099 45 45s-20.099 45-45 45h-60c-8.401 0-15 6.599-15 15s6.599 15 15 15h60c24.901 0 45 20.099 45 45z" fill="#00da7c"/><path d="M452 227c0 13.2-5.7 25.201-15 33.3V182c8.401 0 15 6.599 15 15v30zm60 240c0 24.901-20.099 45-45 45h-30v-30h30c8.401 0 15-6.599 15-15s-6.599-15-15-15h-30v-30h30c24.901 0 45 20.099 45 45zm0-120c0 24.901-20.099 45-45 45h-30v-30h30c8.401 0 15-6.599 15-15s-6.599-15-15-15h-30v-30h30c24.901 0 45 20.099 45 45z" fill="#00b77b"/><path d="M407 91c-8.291 0-15-6.709-15-15V15c0-8.291 6.709-15 15-15s15 6.709 15 15v61c0 8.291-6.709 15-15 15z" fill="#d9d9d9"/><path d="M467 91c-8.291 0-15-6.709-15-15V15c0-8.291 6.709-15 15-15s15 6.709 15 15v61c0 8.291-6.709 15-15 15z" fill="#c8c6cd"/><path d="M330 45c0-24.901-20.099-45-45-45H45C20.099 0 0 20.099 0 45v422c0 24.901 20.099 45 45 45h240c24.901 0 45-20.099 45-45V45z" fill="#e5e5e5"/><path d="M285 0c24.901 0 45 20.099 45 45v422c0 24.901-20.099 45-45 45H165V0h120z" fill="#d9d9d9"/><path d="M225 60H105c-24.901 0-45 20.099-45 45v60c0 24.901 20.099 45 45 45h120c24.901 0 45-20.099 45-45v-60c0-24.901-20.099-45-45-45zm0 182H105c-24.901 0-45 20.099-45 45v60c0 24.901 20.099 45 45 45h120c24.901 0 45-20.099 45-45v-60c0-24.901-20.099-45-45-45z" fill="#fedb41"/><path d="M270 105v60c0 24.901-20.099 45-45 45h-60V60h60c24.901 0 45 20.099 45 45zm0 182v60c0 24.901-20.099 45-45 45h-60V242h60c24.901 0 45 20.099 45 45z" fill="#fcbf29"/><circle cx="135" cy="135" r="15" fill="#57555c"/><circle cx="195" cy="135" r="15" fill="#3c3a41"/><circle cx="135" cy="317" r="15" fill="#57555c"/><circle cx="195" cy="317" r="15" fill="#3c3a41"/><g fill="#aeadb3"><circle cx="105" cy="437" r="15"/><path d="M180 437c0 8.401-6.599 15-15 15s-15-6.599-15-15 6.599-15 15-15 15 6.599 15 15z"/></g><circle cx="225" cy="437" r="15" fill="#8b8892"/><path d="M512 76c0-8.401-6.599-15-15-15H377c-8.401 0-15 6.599-15 15v61c0 41.4 33.6 75 75 75s75-33.6 75-75V76z" fill="#57555c"/><path d="M180 437c0 8.401-6.599 15-15 15v-30c8.401 0 15 6.599 15 15z" fill="#8b8892"/><path d="M497 61c8.401 0 15 6.599 15 15v61c0 41.4-33.6 75-75 75V61h60z" fill="#3c3a41"/></svg>